# xmcd CD database file
#
# Track frame offsets:
#	150
#	9925
#	25510
#	36192
#	50257
#	67482
#	87482
#	100472
#	123322
#	139225
#
# Disc length: 2045 seconds
#
# Revision: 3
# Processed by: cddbd v1.5.1PL2 Copyright (c) Steve Scherf et al.
# Submitted via: CDex 1.70beta2
#
DISCID=8507fb0a
DTITLE=Various Artist - New Country Volume 4 No. 7
DYEAR=1997
DGENRE=Country
TTITLE0=Tom T. Hall - Country Is
TTITLE1=George Ducas - I'm Pretending
TTITLE2=Hank Williams, Jr. - I'll Think Of Something
TTITLE3=Joe Nichols - I Hate the Way I Love You
TTITLE4=Bekka and Billy - Better Days
TTITLE5=Chris LeDoux - Take Me To The Rodeo
TTITLE6=Townes Van Zandt - Gone Too Long
TTITLE7=Nancy Middleton - This Town Is Yours
TTITLE8=5 Chinese Brothers - Let's Kill Saturday Night
TTITLE9=Slim Whitman - I Talk to the Waves
EXTD=YEAR: 1997
EXTT0=
EXTT1=
EXTT2=
EXTT3=
EXTT4=
EXTT5=
EXTT6=
EXTT7=
EXTT8=
EXTT9=
PLAYORDER=
